# xmcd
#
# Track frame offsets: 
#        182
#        17435
#        33970
#        49980
#        63032
#        80902
#        94205
#        105620
#        115330
#        145322
#
# Disc length: 2158 seconds
#
# Revision: 3
# Processed by: cddbd v1.5.2PL0 Copyright (c) Steve Scherf et al.
# Submitted via: ExactAudioCopy v0.95a4
#
DISCID=81086c0a
DTITLE=Willie Nelson - Christmas With Willie Nelson
DYEAR=1994
DGENRE=Country
TTITLE0=Away In A Manger
TTITLE1=Deck The Halls
TTITLE2=It Came Upon A Midnight Clear
TTITLE3=Joy To The World
TTITLE4=The First Noel
TTITLE5=O Little Town Of Bethlehem
TTITLE6=O Come, All Ye Faithful
TTITLE7=We Wish You A Merry Christmas
TTITLE8=Silent Night
TTITLE9=Pretty Paper
EXTD=Escecutive producer: Shug Baggott\nProduced by: Larry Butler and Wi
EXTD=llie Nelson\nPfoduction assistance: Norbert Stovall and John Joneth
EXTD=is
EXTT0=
EXTT1=
EXTT2=
EXTT3=
EXTT4=
EXTT5=
EXTT6=
EXTT7=
EXTT8=
EXTT9=
PLAYORDER=
